<svg xmlns="http://www.w3.org/2000/svg" version="1.1" xmlns:xlink="http://www.w3.org/1999/xlink" xmlns:svgjs="http://svgjs.dev/svgjs" width="1440" height="560" preserveAspectRatio="none" viewBox="0 0 1440 560"><g mask="url(&quot;#SvgjsMask1106&quot;)" fill="none"><rect width="1440" height="560" x="0" y="0" fill="rgba(255, 255, 255, 1)"></rect><path d="M519 447L518 817" stroke-width="10" stroke="url(&quot;#SvgjsLinearGradient1107&quot;)" stroke-linecap="round" class="Down"></path><path d="M1348 110L1347 -117" stroke-width="6" stroke="url(&quot;#SvgjsLinearGradient1107&quot;)" stroke-linecap="round" class="Down"></path><path d="M1094 278L1093 -45" stroke-width="6" stroke="url(&quot;#SvgjsLinearGradient1108&quot;)" stroke-linecap="round" class="Up"></path><path d="M925 95L924 -288" stroke-width="6" stroke="url(&quot;#SvgjsLinearGradient1107&quot;)" stroke-linecap="round" class="Down"></path><path d="M54 514L53 755" stroke-width="6" stroke="url(&quot;#SvgjsLinearGradient1108&quot;)" stroke-linecap="round" class="Up"></path><path d="M718 403L717 202" stroke-width="10" stroke="url(&quot;#SvgjsLinearGradient1108&quot;)" stroke-linecap="round" class="Up"></path><path d="M1058 16L1057 -171" stroke-width="8" stroke="url(&quot;#SvgjsLinearGradient1108&quot;)" stroke-linecap="round" class="Up"></path><path d="M125 357L124 104" stroke-width="10" stroke="url(&quot;#SvgjsLinearGradient1107&quot;)" stroke-linecap="round" class="Down"></path><path d="M1112 264L1111 49" stroke-width="6" stroke="url(&quot;#SvgjsLinearGradient1108&quot;)" stroke-linecap="round" class="Up"></path><path d="M713 174L712 -208" stroke-width="8" stroke="url(&quot;#SvgjsLinearGradient1107&quot;)" stroke-linecap="round" class="Down"></path><path d="M518 493L517 290" stroke-width="6" stroke="url(&quot;#SvgjsLinearGradient1108&quot;)" stroke-linecap="round" class="Up"></path><path d="M201 162L200 9" stroke-width="6" stroke="url(&quot;#SvgjsLinearGradient1107&quot;)" stroke-linecap="round" class="Down"></path><path d="M904 214L903 433" stroke-width="8" stroke="url(&quot;#SvgjsLinearGradient1108&quot;)" stroke-linecap="round" class="Up"></path><path d="M520 85L519 500" stroke-width="10" stroke="url(&quot;#SvgjsLinearGradient1107&quot;)" stroke-linecap="round" class="Down"></path><path d="M918 18L917 -165" stroke-width="8" stroke="url(&quot;#SvgjsLinearGradient1107&quot;)" stroke-linecap="round" class="Down"></path><path d="M363 479L362 229" stroke-width="8" stroke="url(&quot;#SvgjsLinearGradient1108&quot;)" stroke-linecap="round" class="Up"></path><path d="M376 161L375 -26" stroke-width="6" stroke="url(&quot;#SvgjsLinearGradient1108&quot;)" stroke-linecap="round" class="Up"></path><path d="M343 554L342 303" stroke-width="6" stroke="url(&quot;#SvgjsLinearGradient1108&quot;)" stroke-linecap="round" class="Up"></path><path d="M295 123L294 -29" stroke-width="6" stroke="url(&quot;#SvgjsLinearGradient1107&quot;)" stroke-linecap="round" class="Down"></path><path d="M262 118L261 443" stroke-width="10" stroke="url(&quot;#SvgjsLinearGradient1108&quot;)" stroke-linecap="round" class="Up"></path><path d="M755 163L754 -63" stroke-width="8" stroke="url(&quot;#SvgjsLinearGradient1108&quot;)" stroke-linecap="round" class="Up"></path><path d="M689 395L688 116" stroke-width="6" stroke="url(&quot;#SvgjsLinearGradient1108&quot;)" stroke-linecap="round" class="Up"></path><path d="M161 261L160 416" stroke-width="6" stroke="url(&quot;#SvgjsLinearGradient1108&quot;)" stroke-linecap="round" class="Up"></path><path d="M477 550L476 130" stroke-width="8" stroke="url(&quot;#SvgjsLinearGradient1108&quot;)" stroke-linecap="round" class="Up"></path><path d="M1007 547L1006 693" stroke-width="8" stroke="url(&quot;#SvgjsLinearGradient1107&quot;)" stroke-linecap="round" class="Down"></path><path d="M1355 85L1354 -128" stroke-width="8" stroke="url(&quot;#SvgjsLinearGradient1108&quot;)" stroke-linecap="round" class="Up"></path><path d="M525 87L524 -329" stroke-width="6" stroke="url(&quot;#SvgjsLinearGradient1108&quot;)" stroke-linecap="round" class="Up"></path><path d="M1431 487L1430 265" stroke-width="10" stroke="url(&quot;#SvgjsLinearGradient1107&quot;)" stroke-linecap="round" class="Down"></path><path d="M153 157L152 390" stroke-width="10" stroke="url(&quot;#SvgjsLinearGradient1107&quot;)" stroke-linecap="round" class="Down"></path><path d="M161 334L160 -64" stroke-width="8" stroke="url(&quot;#SvgjsLinearGradient1108&quot;)" stroke-linecap="round" class="Up"></path><path d="M806 319L805 499" stroke-width="6" stroke="url(&quot;#SvgjsLinearGradient1108&quot;)" stroke-linecap="round" class="Up"></path><path d="M411 230L410 453" stroke-width="10" stroke="url(&quot;#SvgjsLinearGradient1107&quot;)" stroke-linecap="round" class="Down"></path><path d="M842 429L841 669" stroke-width="10" stroke="url(&quot;#SvgjsLinearGradient1108&quot;)" stroke-linecap="round" class="Up"></path><path d="M1390 117L1389 408" stroke-width="10" stroke="url(&quot;#SvgjsLinearGradient1108&quot;)" stroke-linecap="round" class="Up"></path><path d="M1069 485L1068 684" stroke-width="8" stroke="url(&quot;#SvgjsLinearGradient1107&quot;)" stroke-linecap="round" class="Down"></path><path d="M813 259L812 -54" stroke-width="10" stroke="url(&quot;#SvgjsLinearGradient1108&quot;)" stroke-linecap="round" class="Up"></path></g><defs><mask id="SvgjsMask1106"><rect width="1440" height="560" fill="#ffffff"></rect></mask><linearGradient x1="0%" y1="0%" x2="0%" y2="100%" id="SvgjsLinearGradient1107"><stop stop-color="rgba(167, 139, 250, 0)" offset="0"></stop><stop stop-color="rgba(167, 139, 250, 0.18)" offset="1"></stop></linearGradient><linearGradient x1="0%" y1="100%" x2="0%" y2="0%" id="SvgjsLinearGradient1108"><stop stop-color="rgba(167, 139, 250, 0)" offset="0"></stop><stop stop-color="rgba(167, 139, 250, 0.18)" offset="1"></stop></linearGradient></defs></svg>